<svg width="25" height="25" viewBox="0 0 25 25" fill="none" xmlns="http://www.w3.org/2000/svg">
<path fill-rule="evenodd" clip-rule="evenodd" d="M15.625 4.16664C15.7211 4.06715 15.836 3.9878 15.9631 3.9332C16.0902 3.87861 16.2269 3.84987 16.3652 3.84867C16.5035 3.84747 16.6407 3.87383 16.7687 3.9262C16.8967 3.97858 17.013 4.05593 17.1108 4.15373C17.2086 4.25153 17.286 4.36784 17.3384 4.49586C17.3907 4.62387 17.4171 4.76104 17.4159 4.89935C17.4147 5.03766 17.386 5.17435 17.3314 5.30144C17.2768 5.42853 17.1974 5.54347 17.0979 5.63956L10.974 11.7635C10.7787 11.9589 10.669 12.2238 10.669 12.5C10.669 12.7762 10.7787 13.0411 10.974 13.2364L17.099 19.3604C17.2943 19.5559 17.404 19.8209 17.4039 20.0972C17.4038 20.3735 17.2939 20.6385 17.0984 20.8338C16.903 21.0292 16.6379 21.1388 16.3616 21.1387C16.0853 21.1386 15.8203 21.0288 15.625 20.8333L8.02813 13.2364C7.83285 13.0411 7.72314 12.7762 7.72314 12.5C7.72314 12.2238 7.83285 11.9589 8.02813 11.7635L15.625 4.16664Z" fill="white"/>
</svg>
