<svg width="20" height="20" viewBox="0 0 20 20" fill="none" xmlns="http://www.w3.org/2000/svg">
<path d="M9.00893 9.34658H5.03547C4.37775 9.34658 3.74697 9.08531 3.2819 8.62023C2.81682 8.15515 2.55554 7.52437 2.55554 6.86666V4.87992C2.55554 4.22221 2.81682 3.59143 3.2819 3.12635C3.74697 2.66128 4.37775 2.4 5.03547 2.4H7.0222C7.67992 2.4 8.3107 2.66128 8.77577 3.12635C9.24085 3.59143 9.50213 4.22221 9.50213 4.87992V8.84874C9.50213 8.97997 9.45032 9.1059 9.35796 9.19913C9.2656 9.29236 9.14016 9.34536 9.00893 9.34658ZM5.03547 3.39104C4.64059 3.39104 4.26189 3.5479 3.98267 3.82712C3.70345 4.10634 3.54658 4.48505 3.54658 4.87992V6.86666C3.54658 7.26153 3.70345 7.64024 3.98267 7.91946C4.26189 8.19868 4.64059 8.35554 5.03547 8.35554H8.51109V4.87992C8.51109 4.48505 8.35422 4.10634 8.075 3.82712C7.79578 3.5479 7.41708 3.39104 7.0222 3.39104H5.03547ZM14.9645 9.34658H10.991C10.859 9.34658 10.7323 9.29413 10.639 9.20077C10.5456 9.1074 10.4932 8.98077 10.4932 8.84874V4.87992C10.4932 4.55386 10.5575 4.231 10.6824 3.92982C10.8073 3.62864 10.9904 3.35505 11.2212 3.1247C11.4519 2.89436 11.7259 2.71179 12.0273 2.58743C12.3287 2.46308 12.6517 2.39939 12.9777 2.4H14.9645C15.6222 2.4 16.253 2.66128 16.7181 3.12635C17.1831 3.59143 17.4444 4.22221 17.4444 4.87992V6.86666C17.4444 7.52437 17.1831 8.15515 16.7181 8.62023C16.253 9.08531 15.6222 9.34658 14.9645 9.34658ZM11.4889 8.35554H14.9645C15.3594 8.35554 15.7381 8.19868 16.0173 7.91946C16.2965 7.64024 16.4534 7.26153 16.4534 6.86666V4.87992C16.4534 4.48505 16.2965 4.10634 16.0173 3.82712C15.7381 3.5479 15.3594 3.39104 14.9645 3.39104H12.9777C12.5829 3.39104 12.2042 3.5479 11.9249 3.82712C11.6457 4.10634 11.4889 4.48505 11.4889 4.87992V8.35554ZM7.0222 17.2889H5.03547C4.37775 17.2889 3.74697 17.0276 3.2819 16.5625C2.81682 16.0974 2.55554 15.4667 2.55554 14.8089V12.8222C2.55554 12.1645 2.81682 11.5337 3.2819 11.0686C3.74697 10.6036 4.37775 10.3423 5.03547 10.3423H9.00428C9.13632 10.3423 9.26295 10.3947 9.35631 10.4881C9.44968 10.5815 9.50213 10.7081 9.50213 10.8401V14.8089C9.50213 15.4667 9.24085 16.0974 8.77577 16.5625C8.3107 17.0276 7.67992 17.2889 7.0222 17.2889ZM5.03547 11.3333C4.64059 11.3333 4.26189 11.4902 3.98267 11.7694C3.70345 12.0486 3.54658 12.4273 3.54658 12.8222V14.8089C3.54658 15.2038 3.70345 15.5825 3.98267 15.8617C4.26189 16.141 4.64059 16.2978 5.03547 16.2978H7.0222C7.41708 16.2978 7.79578 16.141 8.075 15.8617C8.35422 15.5825 8.51109 15.2038 8.51109 14.8089V11.3333H5.03547ZM14.9645 17.2889H12.9777C12.32 17.2889 11.6892 17.0276 11.2242 16.5625C10.7591 16.0974 10.4978 15.4667 10.4978 14.8089V10.8355C10.4978 10.7034 10.5503 10.5768 10.6436 10.4834C10.737 10.3901 10.8636 10.3376 10.9957 10.3376H14.9645C15.2905 10.3376 15.6134 10.4019 15.9146 10.5268C16.2158 10.6518 16.4894 10.8348 16.7197 11.0656C16.95 11.2964 17.1326 11.5703 17.257 11.8717C17.3813 12.1732 17.445 12.4961 17.4444 12.8222V14.8089C17.4444 15.4667 17.1831 16.0974 16.7181 16.5625C16.253 17.0276 15.6222 17.2889 14.9645 17.2889ZM11.4889 11.3333V14.8089C11.4889 15.2038 11.6457 15.5825 11.9249 15.8617C12.2042 16.141 12.5829 16.2978 12.9777 16.2978H14.9645C15.3594 16.2978 15.7381 16.141 16.0173 15.8617C16.2965 15.5825 16.4534 15.2038 16.4534 14.8089V12.8222C16.4534 12.4273 16.2965 12.0486 16.0173 11.7694C15.7381 11.4902 15.3594 11.3333 14.9645 11.3333H11.4889Z" fill="#A10035"/>
</svg>
