<svg width="20" height="20" viewBox="0 0 20 20" fill="none" xmlns="http://www.w3.org/2000/svg">
<path fill-rule="evenodd" clip-rule="evenodd" d="M4.41074 4.41084C4.56701 4.25461 4.77893 4.16685 4.9999 4.16685C5.22087 4.16685 5.4328 4.25461 5.58907 4.41084L9.9999 8.82167L14.4107 4.41084C14.4876 4.33125 14.5796 4.26776 14.6812 4.22409C14.7829 4.18041 14.8923 4.15743 15.0029 4.15646C15.1136 4.1555 15.2233 4.17659 15.3257 4.21849C15.4281 4.26039 15.5212 4.32227 15.5994 4.40051C15.6776 4.47875 15.7395 4.5718 15.7814 4.67421C15.8233 4.77663 15.8444 4.88636 15.8434 4.99701C15.8425 5.10766 15.8195 5.21701 15.7758 5.31868C15.7321 5.42035 15.6687 5.5123 15.5891 5.58917L11.1782 10L15.5891 14.4108C15.7409 14.568 15.8249 14.7785 15.823 14.997C15.8211 15.2155 15.7334 15.4245 15.5789 15.579C15.4244 15.7335 15.2154 15.8212 14.9969 15.8231C14.7784 15.825 14.5679 15.741 14.4107 15.5892L9.9999 11.1783L5.58907 15.5892C5.4319 15.741 5.2214 15.825 5.0029 15.8231C4.78441 15.8212 4.57539 15.7335 4.42089 15.579C4.26638 15.4245 4.17874 15.2155 4.17684 14.997C4.17494 14.7785 4.25894 14.568 4.41074 14.4108L8.82157 10L4.41074 5.58917C4.25451 5.4329 4.16675 5.22098 4.16675 5.00001C4.16675 4.77904 4.25451 4.56711 4.41074 4.41084Z" fill="white"/>
</svg>
