<svg width="20" height="20" viewBox="0 0 20 20" fill="none" xmlns="http://www.w3.org/2000/svg">
<path d="M17.9593 12.0625C17.7935 12.0625 17.6345 12.1283 17.5173 12.2456C17.4001 12.3628 17.3343 12.5217 17.3343 12.6875V14.8219C17.3343 15.325 17.1344 15.8074 16.7787 16.1632C16.423 16.5189 15.9405 16.7188 15.4374 16.7188H4.5624C4.05932 16.7188 3.57684 16.5189 3.22111 16.1632C2.86538 15.8074 2.66553 15.325 2.66553 14.8219V12.6875C2.66553 12.5217 2.59968 12.3628 2.48247 12.2456C2.36526 12.1283 2.20629 12.0625 2.04053 12.0625C1.87477 12.0625 1.7158 12.1283 1.59859 12.2456C1.48138 12.3628 1.41553 12.5217 1.41553 12.6875V14.8219C1.41635 15.6562 1.74817 16.4562 2.33814 17.0461C2.92811 17.6361 3.72805 17.9679 4.5624 17.9688H15.4374C16.2718 17.9679 17.0717 17.6361 17.6617 17.0461C18.2516 16.4562 18.5835 15.6562 18.5843 14.8219V12.6875C18.5843 12.5217 18.5184 12.3628 18.4012 12.2456C18.284 12.1283 18.125 12.0625 17.9593 12.0625Z" fill="#A10035"/>
<path d="M9.55591 13.8875C9.61402 13.9461 9.68314 13.9926 9.7593 14.0243C9.83547 14.056 9.91716 14.0724 9.99966 14.0724C10.0822 14.0724 10.1639 14.056 10.24 14.0243C10.3162 13.9926 10.3853 13.9461 10.4434 13.8875L13.9997 10.3313C14.0989 10.2119 14.1501 10.0598 14.1434 9.9047C14.1367 9.7496 14.0725 9.60256 13.9633 9.4922C13.8541 9.38184 13.7077 9.31607 13.5527 9.30769C13.3977 9.29931 13.2451 9.34893 13.1247 9.44687L10.6247 11.9469V2.65625C10.6247 2.49049 10.5588 2.33152 10.4416 2.21431C10.3244 2.0971 10.1654 2.03125 9.99966 2.03125C9.8339 2.03125 9.67493 2.0971 9.55772 2.21431C9.44051 2.33152 9.37466 2.49049 9.37466 2.65625V11.9375L6.87466 9.4375C6.75739 9.32022 6.59833 9.25434 6.43248 9.25434C6.26662 9.25434 6.10756 9.32022 5.99029 9.4375C5.87301 9.55478 5.80713 9.71383 5.80713 9.87969C5.80713 10.0455 5.87301 10.2046 5.99029 10.3219L9.55591 13.8875Z" fill="#A10035"/>
</svg>
