<svg width="30" height="30" viewBox="0 0 30 30" fill="none" xmlns="http://www.w3.org/2000/svg">
<path d="M6.25 6.5625C6.00136 6.5625 5.7629 6.66127 5.58709 6.83709C5.41127 7.0129 5.3125 7.25136 5.3125 7.5C5.3125 7.74864 5.41127 7.9871 5.58709 8.16291C5.7629 8.33873 6.00136 8.4375 6.25 8.4375H23.75C23.9986 8.4375 24.2371 8.33873 24.4129 8.16291C24.5887 7.9871 24.6875 7.74864 24.6875 7.5C24.6875 7.25136 24.5887 7.0129 24.4129 6.83709C24.2371 6.66127 23.9986 6.5625 23.75 6.5625H6.25ZM6.25 14.0625C6.00136 14.0625 5.7629 14.1613 5.58709 14.3371C5.41127 14.5129 5.3125 14.7514 5.3125 15C5.3125 15.2486 5.41127 15.4871 5.58709 15.6629C5.7629 15.8387 6.00136 15.9375 6.25 15.9375H13.75C13.9986 15.9375 14.2371 15.8387 14.4129 15.6629C14.5887 15.4871 14.6875 15.2486 14.6875 15C14.6875 14.7514 14.5887 14.5129 14.4129 14.3371C14.2371 14.1613 13.9986 14.0625 13.75 14.0625H6.25ZM6.25 21.5625C6.00136 21.5625 5.7629 21.6613 5.58709 21.8371C5.41127 22.0129 5.3125 22.2514 5.3125 22.5C5.3125 22.7486 5.41127 22.9871 5.58709 23.1629C5.7629 23.3387 6.00136 23.4375 6.25 23.4375H23.75C23.9986 23.4375 24.2371 23.3387 24.4129 23.1629C24.5887 22.9871 24.6875 22.7486 24.6875 22.5C24.6875 22.2514 24.5887 22.0129 24.4129 21.8371C24.2371 21.6613 23.9986 21.5625 23.75 21.5625H6.25Z" fill="white"/>
</svg>
