<svg width="20" height="20" viewBox="0 0 20 20" fill="none" xmlns="http://www.w3.org/2000/svg">
<path d="M10 18C9.74398 18 9.4972 17.9072 9.30482 17.7387C8.57831 17.1035 7.87789 16.5065 7.25991 15.9799L7.25675 15.9772C5.44496 14.4332 3.88041 13.0999 2.79183 11.7864C1.57498 10.3181 1.00818 8.92581 1.00818 7.40488C1.00818 5.92719 1.51488 4.56391 2.43483 3.56602C3.36577 2.55633 4.64314 2.00024 6.03207 2.00024C7.07017 2.00024 8.02085 2.32845 8.85769 2.97565C9.27999 3.30231 9.66278 3.70213 10 4.16848C10.3374 3.70213 10.7201 3.30231 11.1425 2.97565C11.9794 2.32845 12.9301 2.00024 13.9682 2.00024C15.3569 2.00024 16.6345 2.55633 17.5654 3.56602C18.4853 4.56391 18.9919 5.92719 18.9919 7.40488C18.9919 8.92577 18.4252 10.318 17.2084 11.7862C16.1198 13.0999 14.5554 14.4331 12.7439 15.9769C12.1248 16.5043 11.4233 17.1023 10.6951 17.739C10.5027 17.9073 10.2557 18.0001 10 18ZM6.03207 3.0537C4.94089 3.0537 3.93847 3.48921 3.20922 4.28003C2.46915 5.08284 2.06149 6.19256 2.06149 7.40488C2.06149 8.68404 2.5369 9.82805 3.60286 11.1142C4.63313 12.3574 6.16557 13.6634 7.93992 15.1755L7.94319 15.1782C8.56348 15.7069 9.26668 16.3062 9.99853 16.9461C10.7348 16.305 11.4391 15.7047 12.0606 15.1752C13.8348 13.6631 15.3671 12.3574 16.3974 11.1142C17.4632 9.82805 17.9386 8.68404 17.9386 7.40488C17.9386 6.19252 17.5309 5.0828 16.7909 4.28003C16.0617 3.48921 15.0592 3.0537 13.9682 3.0537C13.1688 3.0537 12.4349 3.30782 11.7869 3.80887C11.2094 4.25562 10.8071 4.82035 10.5712 5.2155C10.4499 5.4187 10.2365 5.53998 10 5.53998C9.76362 5.53998 9.55013 5.4187 9.42885 5.2155C9.19316 4.82035 8.79085 4.25562 8.21319 3.80887C7.56521 3.30782 6.83129 3.0537 6.03207 3.0537Z" fill="#A10035"/>
</svg>
