<svg width="15" height="15" viewBox="0 0 15 15" fill="none" xmlns="http://www.w3.org/2000/svg">
<path d="M3.90637 12.1875C3.41699 12.1866 2.94021 12.0323 2.5431 11.7463C2.146 11.4603 1.84855 11.057 1.69262 10.5931L1.67074 10.5212C1.60073 10.3022 1.56428 10.0737 1.56262 9.84375V5.5825L0.0463653 10.6438C-0.0464338 11.0039 0.00582433 11.3861 0.191899 11.7081C0.377974 12.0301 0.682999 12.2662 1.04137 12.3656L10.7057 14.9538C10.8264 14.985 10.947 15 11.0657 15C11.6882 15 12.257 14.5869 12.4164 13.9781L12.9795 12.1875H3.90637ZM5.62512 5.625C6.31449 5.625 6.87512 5.06438 6.87512 4.375C6.87512 3.68562 6.31449 3.125 5.62512 3.125C4.93574 3.125 4.37512 3.68562 4.37512 4.375C4.37512 5.06438 4.93574 5.625 5.62512 5.625Z" fill="#A10035" fill-opacity="0.9"/>
<path d="M13.4375 1.25H4.0625C3.64825 1.2505 3.25111 1.41528 2.95819 1.70819C2.66528 2.00111 2.5005 2.39825 2.5 2.8125V9.6875C2.5 10.5487 3.20125 11.25 4.0625 11.25H13.4375C14.2988 11.25 15 10.5487 15 9.6875V2.8125C15 1.95125 14.2988 1.25 13.4375 1.25ZM4.0625 2.5H13.4375C13.5204 2.5 13.5999 2.53292 13.6585 2.59153C13.7171 2.65013 13.75 2.72962 13.75 2.8125V7.24937L11.7756 4.94563C11.6712 4.82571 11.5425 4.72941 11.398 4.66313C11.2535 4.59685 11.0965 4.56212 10.9375 4.56125C10.778 4.56207 10.6206 4.59781 10.4763 4.66594C10.3321 4.73407 10.2045 4.83294 10.1025 4.95563L7.78125 7.74188L7.025 6.9875C6.81935 6.78217 6.54061 6.66684 6.25 6.66684C5.95939 6.66684 5.68065 6.78217 5.475 6.9875L3.75 8.71187V2.8125C3.75 2.72962 3.78292 2.65013 3.84153 2.59153C3.90013 2.53292 3.97962 2.5 4.0625 2.5Z" fill="#A10035" fill-opacity="0.9"/>
</svg>
