<svg width="20" height="20" viewBox="0 0 20 20" fill="none" xmlns="http://www.w3.org/2000/svg">
<path d="M5 17.5C3.62156 17.5 2.5 16.3784 2.5 15C2.5 14.8342 2.56585 14.6753 2.68306 14.5581C2.80027 14.4408 2.95924 14.375 3.125 14.375C3.29076 14.375 3.44973 14.4408 3.56694 14.5581C3.68415 14.6753 3.75 14.8342 3.75 15C3.75 15.6894 4.31062 16.25 5 16.25C5.16576 16.25 5.32473 16.3158 5.44194 16.4331C5.55915 16.5503 5.625 16.7092 5.625 16.875C5.625 17.0408 5.55915 17.1997 5.44194 17.3169C5.32473 17.4342 5.16576 17.5 5 17.5Z" fill="#A10035"/>
<path d="M3.125 15.625C2.95924 15.625 2.80027 15.5592 2.68306 15.4419C2.56585 15.3247 2.5 15.1658 2.5 15V5C2.5 4.83424 2.56585 4.67527 2.68306 4.55806C2.80027 4.44085 2.95924 4.375 3.125 4.375C3.29076 4.375 3.44973 4.44085 3.56694 4.55806C3.68415 4.67527 3.75 4.83424 3.75 5V15C3.75 15.1658 3.68415 15.3247 3.56694 15.4419C3.44973 15.5592 3.29076 15.625 3.125 15.625ZM8.125 17.5H5C4.83424 17.5 4.67527 17.4342 4.55806 17.3169C4.44085 17.1997 4.375 17.0408 4.375 16.875C4.375 16.7092 4.44085 16.5503 4.55806 16.4331C4.67527 16.3158 4.83424 16.25 5 16.25H8.125C8.29076 16.25 8.44973 16.3158 8.56694 16.4331C8.68415 16.5503 8.75 16.7092 8.75 16.875C8.75 17.0408 8.68415 17.1997 8.56694 17.3169C8.44973 17.4342 8.29076 17.5 8.125 17.5Z" fill="#A10035"/>
<path d="M3.125 5.625C2.95924 5.625 2.80027 5.55915 2.68306 5.44194C2.56585 5.32473 2.5 5.16576 2.5 5C2.5 3.62156 3.62156 2.5 5 2.5C5.16576 2.5 5.32473 2.56585 5.44194 2.68306C5.55915 2.80027 5.625 2.95924 5.625 3.125C5.625 3.29076 5.55915 3.44973 5.44194 3.56694C5.32473 3.68415 5.16576 3.75 5 3.75C4.31062 3.75 3.75 4.31062 3.75 5C3.75 5.16576 3.68415 5.32473 3.56694 5.44194C3.44973 5.55915 3.29076 5.625 3.125 5.625Z" fill="#A10035"/>
<path d="M8.125 3.75H5C4.83424 3.75 4.67527 3.68415 4.55806 3.56694C4.44085 3.44973 4.375 3.29076 4.375 3.125C4.375 2.95924 4.44085 2.80027 4.55806 2.68306C4.67527 2.56585 4.83424 2.5 5 2.5H8.125C8.29076 2.5 8.44973 2.56585 8.56694 2.68306C8.68415 2.80027 8.75 2.95924 8.75 3.125C8.75 3.29076 8.68415 3.44973 8.56694 3.56694C8.44973 3.68415 8.29076 3.75 8.125 3.75ZM16.875 10.625H6.875C6.70924 10.625 6.55027 10.5592 6.43306 10.4419C6.31585 10.3247 6.25 10.1658 6.25 10C6.25 9.83424 6.31585 9.67527 6.43306 9.55806C6.55027 9.44085 6.70924 9.375 6.875 9.375H16.875C17.0408 9.375 17.1997 9.44085 17.3169 9.55806C17.4342 9.67527 17.5 9.83424 17.5 10C17.5 10.1658 17.4342 10.3247 17.3169 10.4419C17.1997 10.5592 17.0408 10.625 16.875 10.625Z" fill="#A10035"/>
<path d="M16.875 10.625C16.7929 10.6251 16.7116 10.609 16.6357 10.5776C16.5599 10.5462 16.491 10.5 16.4331 10.4419L12.8975 6.90656C12.8378 6.8489 12.7902 6.77994 12.7574 6.70368C12.7247 6.62743 12.7074 6.54542 12.7067 6.46243C12.706 6.37944 12.7218 6.29715 12.7532 6.22033C12.7846 6.14352 12.831 6.07374 12.8897 6.01506C12.9484 5.95638 13.0182 5.90997 13.095 5.87854C13.1718 5.84712 13.2541 5.8313 13.3371 5.83202C13.4201 5.83275 13.5021 5.84999 13.5783 5.88274C13.6546 5.9155 13.7236 5.96311 13.7812 6.02281L17.3165 9.55812C17.4039 9.64551 17.4634 9.75683 17.4875 9.87802C17.5116 9.99921 17.4993 10.1248 17.452 10.239C17.4048 10.3532 17.3247 10.4508 17.222 10.5195C17.1193 10.5882 16.9985 10.6249 16.875 10.625Z" fill="#A10035"/>
<path d="M13.3397 14.1603C13.2161 14.1603 13.0953 14.1236 12.9925 14.0549C12.8898 13.9863 12.8097 13.8887 12.7624 13.7745C12.7151 13.6603 12.7027 13.5346 12.7268 13.4134C12.751 13.2922 12.8105 13.1808 12.8978 13.0934L16.4331 9.55813C16.4908 9.49844 16.5598 9.45082 16.636 9.41807C16.7123 9.38531 16.7943 9.36807 16.8773 9.36735C16.9603 9.36663 17.0426 9.38244 17.1194 9.41387C17.1962 9.44529 17.266 9.4917 17.3246 9.55038C17.3833 9.60907 17.4297 9.67885 17.4612 9.75566C17.4926 9.83247 17.5084 9.91477 17.5077 9.99776C17.507 10.0807 17.4897 10.1628 17.457 10.239C17.4242 10.3153 17.3766 10.3842 17.3169 10.4419L13.7816 13.9775C13.6594 14.0994 13.4994 14.1603 13.3397 14.1603Z" fill="#A10035"/>
</svg>
