<svg width="15" height="15" viewBox="0 0 15 15" fill="none" xmlns="http://www.w3.org/2000/svg">
<g clip-path="url(#clip0_209_2077)">
<path d="M7.50005 15C8.39923 15 9.17355 14.4569 9.5133 13.6816H5.4868C5.82656 14.4569 6.6009 15 7.50005 15ZM12.0411 7.26158V6.29883C12.0411 4.25326 10.6814 2.5195 8.81841 1.95322V1.31836C8.81841 0.591416 8.227 0 7.50005 0C6.77311 0 6.18169 0.591416 6.18169 1.31836V1.95322C4.31871 2.5195 2.95904 4.25323 2.95904 6.29883V7.26158C2.95904 9.05842 2.27414 10.7622 1.03051 12.0591C0.970883 12.1213 0.930839 12.1996 0.915358 12.2843C0.899877 12.3691 0.909642 12.4565 0.94344 12.5357C0.977237 12.615 1.03358 12.6825 1.10545 12.73C1.17733 12.7774 1.26157 12.8028 1.34771 12.8027H13.6524C13.7385 12.8027 13.8228 12.7774 13.8946 12.73C13.9665 12.6825 14.0228 12.6149 14.0566 12.5357C14.0904 12.4565 14.1002 12.3691 14.0847 12.2843C14.0692 12.1996 14.0292 12.1213 13.9696 12.0591C12.726 10.7622 12.0411 9.05839 12.0411 7.26158ZM7.93951 1.77914C7.79487 1.7652 7.64829 1.75781 7.50005 1.75781C7.35181 1.75781 7.20524 1.7652 7.0606 1.77914V1.31836C7.0606 1.07604 7.25774 0.878906 7.50005 0.878906C7.74237 0.878906 7.93951 1.07604 7.93951 1.31836V1.77914ZM13.2129 6.29883C13.2129 6.54152 13.4097 6.73828 13.6524 6.73828C13.8951 6.73828 14.0918 6.54152 14.0918 6.29883C14.0918 4.53809 13.4062 2.88272 12.1612 1.6377C11.9896 1.4661 11.7113 1.46607 11.5397 1.6377C11.3681 1.80932 11.3681 2.08755 11.5397 2.25917C12.6187 3.3382 13.2129 4.77284 13.2129 6.29883ZM1.34771 6.73828C1.5904 6.73828 1.78716 6.54152 1.78716 6.29883C1.78716 4.77287 2.38142 3.33823 3.46042 2.2592C3.63205 2.08758 3.63205 1.80935 3.46042 1.63772C3.28883 1.4661 3.01057 1.4661 2.83895 1.63772C1.59392 2.88275 0.908256 4.53809 0.908256 6.29883C0.908256 6.54152 1.10501 6.73828 1.34771 6.73828Z" fill="#A10035" fill-opacity="0.9"/>
</g>
<defs>
<clipPath id="clip0_209_2077">
<rect width="15" height="15" fill="white"/>
</clipPath>
</defs>
</svg>
