<svg width="20" height="20" viewBox="0 0 20 20" fill="none" xmlns="http://www.w3.org/2000/svg">
<g clip-path="url(#clip0_91_1013)">
<path d="M17.1429 0C16.7484 0 16.4286 0.319796 16.4286 0.714299V3.32356C12.7512 -0.236719 6.88391 -0.141713 3.32363 3.53567C1.64576 5.26876 0.70972 7.58775 0.714373 9.99998C0.714373 10.3945 1.03417 10.7143 1.42867 10.7143C1.82317 10.7143 2.14293 10.3945 2.14293 9.99998C2.14381 5.66061 5.66223 2.14353 10.0016 2.1444C11.0916 2.14462 12.1696 2.37162 13.1671 2.81097C14.1647 3.25031 15.0599 3.8924 15.7958 4.69641L12.6315 5.75139C12.2568 5.87607 12.054 6.28091 12.1787 6.65566C12.3034 7.03041 12.7082 7.23318 13.083 7.1085L17.3687 5.67995C17.5113 5.63243 17.6353 5.54113 17.723 5.41904C17.8108 5.29696 17.8577 5.1503 17.8573 4.99997V0.714257C17.8572 0.319796 17.5374 0 17.1429 0ZM18.5715 9.28572C18.177 9.28572 17.8572 9.60552 17.8572 10C17.8563 14.3394 14.3379 17.8565 9.99846 17.8556C8.90848 17.8554 7.83047 17.6284 6.83295 17.189C5.83544 16.7497 4.94025 16.1076 4.2043 15.3036L7.36857 14.2486C7.74332 14.1239 7.94609 13.7191 7.82141 13.3443C7.69673 12.9696 7.29189 12.7668 6.91714 12.8915L2.63143 14.3201C2.4888 14.3676 2.3648 14.4589 2.27708 14.581C2.18935 14.703 2.14238 14.8497 2.14285 15V19.2857C2.14285 19.6802 2.46264 20 2.85714 20C3.25165 20 3.57144 19.6802 3.57144 19.2857V16.6764C7.24887 20.2367 13.1162 20.1418 16.6764 16.4643C18.3543 14.7312 19.2903 12.4122 19.2857 10C19.2858 9.60552 18.966 9.28572 18.5715 9.28572Z" fill="#A10035"/>
</g>
<defs>
<clipPath id="clip0_91_1013">
<rect width="20" height="20" fill="white"/>
</clipPath>
</defs>
</svg>
