<svg width="16" height="16" viewBox="0 0 16 16" fill="none" xmlns="http://www.w3.org/2000/svg">
<g clip-path="url(#clip0_40_207)">
<path d="M15.8484 15.1295L11.7174 11.0646C12.7992 9.8893 13.4639 8.33495 13.4639 6.62454C13.4633 2.96568 10.4496 0 6.73176 0C3.01389 0 0.000183105 2.96568 0.000183105 6.62454C0.000183105 10.2834 3.01389 13.2491 6.73176 13.2491C8.33814 13.2491 9.81147 12.6935 10.9688 11.7697L15.1157 15.8507C15.3178 16.0497 15.6458 16.0497 15.8479 15.8507C16.0504 15.6517 16.0504 15.3286 15.8484 15.1295ZM6.73176 12.2299C3.58603 12.2299 1.03593 9.72028 1.03593 6.62454C1.03593 3.5288 3.58603 1.01923 6.73176 1.01923C9.87751 1.01923 12.4276 3.5288 12.4276 6.62454C12.4276 9.72028 9.87751 12.2299 6.73176 12.2299Z" fill="#A10035"/>
</g>
<defs>
<clipPath id="clip0_40_207">
<rect width="16" height="16" fill="white"/>
</clipPath>
</defs>
</svg>
