<svg width="20" height="20" viewBox="0 0 20 20" fill="none" xmlns="http://www.w3.org/2000/svg">
<g clip-path="url(#clip0_91_1005)">
<path d="M19.6699 0.329993C19.3598 0.0197591 18.9134 -0.0794206 18.4757 0.0648372L0.71598 5.92109C0.509308 5.9891 0.322562 6.10696 0.17223 6.26425C0.102351 6.33769 0.0513828 6.42702 0.0237206 6.52454C-0.00394165 6.62206 -0.00746764 6.72485 0.0134467 6.82404C0.034361 6.92323 0.0790879 7.01584 0.14377 7.09389C0.208453 7.17195 0.29115 7.23309 0.38473 7.27206L8.58668 10.6864C8.77371 10.7643 9.23551 11.226 9.31325 11.413L12.7276 19.615C12.7666 19.7085 12.8277 19.7912 12.9058 19.8559C12.9838 19.9206 13.0764 19.9654 13.1756 19.9863C13.2748 20.0072 13.3776 20.0037 13.4751 19.976C13.5727 19.9484 13.662 19.8974 13.7354 19.8275C13.8927 19.6772 14.0106 19.4905 14.0786 19.2839L19.935 1.52409C20.0792 1.08652 19.9803 0.640072 19.6699 0.329993ZM2.39649 6.75577L2.29926 6.71531L17.3705 1.74546L9.39606 9.71988C9.29324 9.64607 9.18297 9.58323 9.06707 9.53238L2.39649 6.75577ZM13.2847 17.7005L10.4673 10.9327C10.4165 10.8168 10.3537 10.7066 10.2798 10.6037L18.2543 2.62929L13.2847 17.7005Z" fill="#A10035"/>
</g>
<defs>
<clipPath id="clip0_91_1005">
<rect width="20" height="20" fill="white"/>
</clipPath>
</defs>
</svg>
