<svg width="20" height="20" viewBox="0 0 20 20" fill="none" xmlns="http://www.w3.org/2000/svg">
<g clip-path="url(#clip0_73_552)">
<path d="M10.9333 20H9.06667C8.76147 19.9997 8.46696 19.8876 8.23879 19.685C8.01062 19.4823 7.8646 19.203 7.82833 18.9L7.62917 17.3367C7.23564 17.2089 6.85278 17.0504 6.48417 16.8625L5.23917 17.83C4.99878 18.019 4.69719 18.1127 4.39203 18.0933C4.08688 18.074 3.79957 17.9428 3.585 17.725L2.2725 16.4125C2.05585 16.1981 1.92572 15.9115 1.90697 15.6073C1.88822 15.3031 1.98215 15.0027 2.17083 14.7633L3.13833 13.5175C2.94974 13.1492 2.79117 12.7663 2.66417 12.3725L1.0975 12.1733C0.794854 12.136 0.516288 11.9893 0.314179 11.7609C0.11207 11.5326 0.000341233 11.2383 0 10.9333L0 9.06667C0 8.43583 0.4725 7.90333 1.1 7.82833L2.66333 7.62917C2.79107 7.23564 2.94961 6.85278 3.1375 6.48417L2.17083 5.23917C1.98139 4.99876 1.88742 4.69686 1.90695 4.39141C1.92648 4.08596 2.05815 3.79848 2.27667 3.58417L3.58917 2.27167C3.80361 2.05518 4.09022 1.92517 4.39437 1.90642C4.69851 1.88767 4.99892 1.98149 5.23833 2.17L6.48333 3.13833C6.85217 2.9503 7.23531 2.79175 7.62917 2.66417L7.82833 1.0975C7.90333 0.4725 8.43583 0 9.06667 0H10.9333C11.5642 0 12.0967 0.4725 12.1717 1.1L12.3708 2.66333C12.7692 2.7925 13.1525 2.95167 13.5167 3.1375L14.7617 2.17C15.002 1.98079 15.3037 1.88696 15.609 1.90649C15.9143 1.92602 16.2016 2.05754 16.4158 2.27583L17.7283 3.58833C18.1758 4.0225 18.2208 4.73333 17.83 5.2375L16.8625 6.48333C17.0492 6.8475 17.2083 7.23083 17.3367 7.62833L18.9033 7.8275C19.2058 7.86488 19.4841 8.01144 19.6861 8.23964C19.888 8.46783 19.9997 8.76194 20 9.06667V10.9333C20 11.5642 19.5275 12.0967 18.9 12.1717L17.3367 12.3708C17.2089 12.7644 17.0504 13.1472 16.8625 13.5158L17.83 14.7608C18.0192 15.0012 18.113 15.3029 18.0935 15.6082C18.074 15.9134 17.9425 16.2007 17.7242 16.415L16.4117 17.7275C16.1974 17.9443 15.9107 18.0746 15.6065 18.0933C15.3023 18.1121 15.0018 18.018 14.7625 17.8292L13.5167 16.8617C13.1484 17.0503 12.7655 17.2088 12.3717 17.3358L12.1725 18.9025C12.1353 19.2051 11.9888 19.4836 11.7606 19.6858C11.5324 19.8879 11.2382 19.9996 10.9333 20ZM6.44167 15.95C6.51083 15.95 6.58167 15.9675 6.645 16.0025C7.11269 16.2628 7.60871 16.4686 8.12333 16.6158C8.20157 16.6383 8.27151 16.6832 8.32453 16.7449C8.37754 16.8067 8.41131 16.8826 8.42167 16.9633L8.655 18.7967C8.68 19.0058 8.86083 19.1667 9.06667 19.1667H10.9333C11.0344 19.1653 11.1315 19.1276 11.207 19.0604C11.2824 18.9932 11.3311 18.901 11.3442 18.8008L11.5783 16.9642C11.5887 16.8834 11.6225 16.8075 11.6755 16.7458C11.7285 16.684 11.7984 16.6391 11.8767 16.6167C12.3913 16.4695 12.8873 16.2637 13.355 16.0033C13.4264 15.9635 13.5079 15.9455 13.5894 15.9517C13.671 15.958 13.7488 15.9881 13.8133 16.0383L15.2717 17.1717C15.3502 17.2349 15.4493 17.2669 15.55 17.2617C15.6507 17.2565 15.7459 17.2143 15.8175 17.1433L17.1383 15.8225C17.2106 15.7509 17.2539 15.6552 17.2599 15.5537C17.2659 15.4522 17.2342 15.3521 17.1708 15.2725L16.0375 13.8142C15.9874 13.7496 15.9573 13.6718 15.9511 13.5903C15.9449 13.5088 15.9627 13.4272 16.0025 13.3558C16.2628 12.8881 16.4686 12.3921 16.6158 11.8775C16.6383 11.7993 16.6832 11.7293 16.7449 11.6763C16.8067 11.6233 16.8826 11.5895 16.9633 11.5792L18.7967 11.3458C18.8977 11.3332 18.9908 11.2845 19.0587 11.2087C19.1267 11.1329 19.165 11.0351 19.1667 10.9333V9.06667C19.1653 8.96564 19.1276 8.86848 19.0604 8.79302C18.9932 8.71756 18.901 8.66885 18.8008 8.65583L16.9642 8.42167C16.8834 8.41131 16.8075 8.37754 16.7458 8.32453C16.684 8.27151 16.6391 8.20157 16.6167 8.12333C16.4695 7.60871 16.2637 7.11269 16.0033 6.645C15.9633 6.57369 15.9452 6.4921 15.9514 6.41053C15.9576 6.32896 15.9879 6.25107 16.0383 6.18667L17.1717 4.72833C17.2351 4.65009 17.2674 4.55117 17.2623 4.45056C17.2572 4.34996 17.2152 4.25479 17.1442 4.18333L15.8233 2.8625C15.7521 2.78974 15.6563 2.74611 15.5546 2.7401C15.4529 2.73409 15.3527 2.76614 15.2733 2.83L13.815 3.96333C13.7504 4.01365 13.6724 4.0438 13.5907 4.05003C13.509 4.05625 13.4273 4.03827 13.3558 3.99833C12.8883 3.73777 12.3922 3.53197 11.8775 3.385C11.7993 3.36255 11.7293 3.31767 11.6763 3.25592C11.6233 3.19416 11.5895 3.11823 11.5792 3.0375L11.3458 1.20417C11.3334 1.10299 11.2848 1.00973 11.209 0.941578C11.1332 0.873427 11.0353 0.834983 10.9333 0.833333H9.06667C8.96564 0.834696 8.86848 0.872435 8.79302 0.939629C8.71756 1.00682 8.66885 1.09897 8.65583 1.19917L8.42167 3.03583C8.41126 3.11664 8.37749 3.19265 8.32449 3.25453C8.27149 3.31641 8.20158 3.36146 8.12333 3.38417C7.60866 3.53085 7.1126 3.73637 6.645 3.99667C6.57358 4.03672 6.49193 4.05484 6.41027 4.04877C6.3286 4.04269 6.25054 4.01269 6.18583 3.9625L4.7275 2.82917C4.64926 2.76572 4.55033 2.73343 4.44973 2.73851C4.34913 2.74359 4.25395 2.78567 4.1825 2.85667L2.86167 4.17833C2.78941 4.24988 2.74613 4.3456 2.74013 4.44711C2.73413 4.54862 2.76584 4.64877 2.82917 4.72833L3.9625 6.18667C4.01264 6.25121 4.0427 6.32907 4.04892 6.41057C4.05514 6.49207 4.03726 6.57359 3.9975 6.645C3.73681 7.11252 3.53101 7.60858 3.38417 8.12333C3.36171 8.20157 3.31684 8.27151 3.25508 8.32453C3.19333 8.37754 3.1174 8.41131 3.03667 8.42167L1.20333 8.655C1.10231 8.66728 1.00916 8.71576 0.941131 8.79144C0.873103 8.86713 0.834806 8.96491 0.833333 9.06667V10.9333C0.833333 11.1392 0.994167 11.32 1.19917 11.3442L3.03583 11.5783C3.11656 11.5887 3.19249 11.6225 3.25425 11.6755C3.316 11.7285 3.36088 11.7984 3.38333 11.8767C3.53333 12.3983 3.74 12.8958 3.99667 13.355C4.03675 13.4263 4.05482 13.5079 4.04859 13.5895C4.04236 13.671 4.01211 13.7489 3.96167 13.8133L2.82833 15.2717C2.76489 15.3499 2.7326 15.4488 2.73768 15.5494C2.74275 15.65 2.78483 15.7452 2.85583 15.8167L4.17667 17.1375C4.24812 17.2099 4.34386 17.2533 4.44543 17.2593C4.54699 17.2653 4.64718 17.2335 4.72667 17.17L6.185 16.0367C6.25895 15.9808 6.349 15.9504 6.44167 15.95Z" fill="#A10035"/>
<path d="M10 14.1667C7.70254 14.1667 5.83337 12.2975 5.83337 10C5.83337 7.70251 7.70254 5.83334 10 5.83334C12.2975 5.83334 14.1667 7.70251 14.1667 10C14.1667 12.2975 12.2975 14.1667 10 14.1667ZM10 6.66668C8.16171 6.66668 6.66671 8.16168 6.66671 10C6.66671 11.8383 8.16171 13.3333 10 13.3333C11.8384 13.3333 13.3334 11.8383 13.3334 10C13.3334 8.16168 11.8384 6.66668 10 6.66668Z" fill="#A10035"/>
</g>
<defs>
<clipPath id="clip0_73_552">
<rect width="20" height="20" fill="white"/>
</clipPath>
</defs>
</svg>
