<svg width="15" height="15" viewBox="0 0 15 15" fill="none" xmlns="http://www.w3.org/2000/svg">
<g clip-path="url(#clip0_209_2080)">
<path d="M7.50451 12.1758C7.50455 12.3052 7.46774 12.4318 7.39838 12.541C7.32902 12.6502 7.23 12.7373 7.1129 12.7922C6.99588 12.8473 6.86561 12.8678 6.73732 12.8515C6.60903 12.8352 6.48805 12.7827 6.38852 12.7001L2.66456 9.61431H0.681173C0.591722 9.61435 0.503139 9.59676 0.420487 9.56256C0.337834 9.52835 0.262733 9.47819 0.199474 9.41495C0.136214 9.3517 0.0860379 9.27661 0.0518112 9.19397C0.0175846 9.11132 -2.11729e-05 9.02275 1.91087e-08 8.93329V6.2194C1.40504e-08 6.03873 0.0717611 5.86546 0.199501 5.73768C0.327241 5.60991 0.5005 5.53811 0.681173 5.53807H2.66472L6.38868 2.45223C6.48818 2.36959 6.60919 2.31706 6.7375 2.30081C6.86582 2.28456 6.99611 2.30527 7.11306 2.3605C7.23012 2.41545 7.32912 2.5026 7.39847 2.61175C7.46782 2.7209 7.50466 2.84754 7.50468 2.97686L7.50451 12.1758ZM10.1223 11.1114C10.0249 11.1185 9.92704 11.1045 9.83548 11.0704C9.74393 11.0363 9.66079 10.9829 9.59173 10.9138L9.50063 10.8224C9.38501 10.707 9.31475 10.5538 9.30267 10.3909C9.2906 10.228 9.33751 10.0662 9.43486 9.93498C9.94271 9.25375 10.2162 8.42629 10.2142 7.57659C10.2142 6.65664 9.90853 5.79377 9.33006 5.08116C9.22376 4.95044 9.16971 4.78494 9.17838 4.61668C9.18704 4.44842 9.25781 4.28935 9.37698 4.17024L9.46791 4.07915C9.60398 3.94308 9.78632 3.86891 9.98366 3.88068C10.0788 3.88545 10.1718 3.91008 10.2568 3.95298C10.3418 3.99588 10.4169 4.05611 10.4772 4.12977C11.2796 5.11163 11.7034 6.30372 11.7034 7.57675C11.7034 8.7624 11.3286 9.89097 10.6192 10.8399C10.5607 10.9182 10.486 10.9829 10.4003 11.0297C10.3146 11.0766 10.2198 11.1044 10.1223 11.1114ZM12.9386 13.2165C12.8777 13.2885 12.8025 13.3471 12.7179 13.3885C12.6332 13.43 12.5409 13.4534 12.4467 13.4574C12.3525 13.4614 12.2585 13.4458 12.1707 13.4116C12.0828 13.3774 12.003 13.3254 11.9363 13.2588L11.8468 13.1693C11.7262 13.0487 11.6553 12.8873 11.6479 12.717C11.6406 12.5466 11.6974 12.3797 11.8071 12.2492C12.9066 10.9404 13.5099 9.28598 13.5109 7.57659C13.5117 5.8035 12.8627 4.09158 11.6868 2.76453C11.572 2.63477 11.5109 2.46613 11.516 2.29292C11.5211 2.11971 11.592 1.95495 11.7142 1.83216L11.8036 1.74269C11.8685 1.6759 11.9468 1.62356 12.0333 1.58906C12.1199 1.55455 12.2127 1.53867 12.3058 1.54244C12.3986 1.54514 12.49 1.56679 12.5741 1.60608C12.6583 1.64537 12.7336 1.70146 12.7953 1.7709C14.2166 3.37068 15.0011 5.43661 15 7.57659C14.9995 9.64085 14.2693 11.6385 12.9386 13.2165Z" fill="#A10035" fill-opacity="0.9"/>
</g>
<defs>
<clipPath id="clip0_209_2080">
<rect width="15" height="15" fill="white"/>
</clipPath>
</defs>
</svg>
